<?xml version="1.0" standalone="no"?>
<!DOCTYPE svg PUBLIC "-//W3C//DTD SVG 20010904//EN"
 "http://www.w3.org/TR/2001/REC-SVG-20010904/DTD/svg10.dtd">
<svg version="1.0" xmlns="http://www.w3.org/2000/svg"
 width="50.000000pt" height="50.000000pt" viewBox="0 0 50.000000 50.000000"
 preserveAspectRatio="xMidYMid meet">

<g transform="translate(0.000000,50.000000) scale(0.100000,-0.100000)"
fill="#000000" stroke="none">
<path d="M70 260 l0 -230 146 0 c94 0 143 4 139 10 -4 6 -60 10 -136 10 l-129
0 0 210 0 210 95 0 95 0 0 -65 0 -65 65 0 65 0 0 -60 c0 -33 4 -60 10 -60 6 0
10 29 10 68 l0 68 -68 67 -68 67 -112 0 -112 0 0 -230z m320 103 c0 -2 -20 -3
-45 -3 l-45 0 0 47 0 47 45 -44 c25 -24 45 -45 45 -47z"/>
<path d="M212 283 c7 -52 -9 -91 -43 -109 -16 -8 -29 -21 -29 -29 0 -22 37
-18 53 5 19 27 58 39 106 33 32 -4 41 -2 41 10 0 18 -21 27 -47 21 -27 -7 -47
21 -48 64 0 28 -5 38 -19 40 -16 3 -18 -1 -14 -35z m38 -74 c0 -5 -7 -9 -15
-9 -9 0 -12 6 -9 15 6 15 24 11 24 -6z"/>
<path d="M380 156 c0 -40 -3 -45 -24 -48 -23 -3 -23 -4 19 -50 l43 -47 41 49
c42 49 42 50 17 50 -24 0 -26 3 -26 45 0 45 0 45 -35 45 -35 0 -35 0 -35 -44z
m50 -21 c0 -35 4 -45 17 -45 14 0 12 -4 -7 -25 l-24 -25 -24 22 c-19 19 -21
24 -8 26 12 3 16 15 16 48 0 32 4 44 15 44 11 0 15 -12 15 -45z"/>
</g>
</svg>
